<svg width="161" height="55" viewBox="0 0 161 55" fill="none" xmlns="http://www.w3.org/2000/svg">
<rect x="1" y="1" width="159" height="53" rx="9" fill="#101010"/>
<rect x="1" y="1" width="159" height="53" rx="9" stroke="#999999" stroke-width="2"/>
<path fill-rule="evenodd" clip-rule="evenodd" d="M28.6717 17.3703C29.6501 16.1073 30.3918 14.3222 30.1235 12.5C28.5244 12.6111 26.6553 13.6342 25.5647 14.9678C24.5705 16.1761 23.7534 17.9736 24.0725 19.7182C25.8207 19.7729 27.6249 18.725 28.6717 17.3703ZM37.3125 34.5108C36.6129 36.0701 36.2762 36.7669 35.375 38.1481C34.1178 40.0761 32.3451 42.4769 30.1463 42.4945C28.1948 42.5157 27.6916 41.2156 25.0422 41.2315C22.3928 41.2456 21.8404 42.5192 19.8854 42.4998C17.6884 42.4804 16.0086 40.3142 14.7514 38.3862C11.2341 32.999 10.8641 26.6752 13.0331 23.3114C14.5761 20.9229 17.0098 19.5259 19.2962 19.5259C21.623 19.5259 23.0871 20.8101 25.0141 20.8101C26.8832 20.8101 28.0212 19.5224 30.7127 19.5224C32.7501 19.5224 34.9086 20.6389 36.4446 22.5652C31.4088 25.3417 32.2241 32.5757 37.3125 34.5108Z" fill="white"/>
<path d="M50.1307 19H47.1733V10.2727H50.1903C51.0568 10.2727 51.8011 10.4474 52.4233 10.7969C53.0483 11.1435 53.5284 11.642 53.8636 12.2926C54.1989 12.9432 54.3665 13.7216 54.3665 14.6278C54.3665 15.5369 54.1974 16.3182 53.8594 16.9716C53.5241 17.625 53.0398 18.1264 52.4062 18.4759C51.7756 18.8253 51.017 19 50.1307 19ZM48.7543 17.6321H50.054C50.6619 17.6321 51.169 17.5213 51.5753 17.2997C51.9815 17.0753 52.2869 16.7415 52.4915 16.2983C52.696 15.8523 52.7983 15.2955 52.7983 14.6278C52.7983 13.9602 52.696 13.4062 52.4915 12.9659C52.2869 12.5227 51.9844 12.1918 51.5838 11.973C51.1861 11.7514 50.6918 11.6406 50.1009 11.6406H48.7543V17.6321ZM58.4155 19.1278C57.7763 19.1278 57.2224 18.9872 56.7536 18.706C56.2849 18.4247 55.9212 18.0312 55.6627 17.5256C55.407 17.0199 55.2792 16.429 55.2792 15.7528C55.2792 15.0767 55.407 14.4844 55.6627 13.9759C55.9212 13.4673 56.2849 13.0724 56.7536 12.7912C57.2224 12.5099 57.7763 12.3693 58.4155 12.3693C59.0547 12.3693 59.6087 12.5099 60.0775 12.7912C60.5462 13.0724 60.9084 13.4673 61.1641 13.9759C61.4226 14.4844 61.5519 15.0767 61.5519 15.7528C61.5519 16.429 61.4226 17.0199 61.1641 17.5256C60.9084 18.0312 60.5462 18.4247 60.0775 18.706C59.6087 18.9872 59.0547 19.1278 58.4155 19.1278ZM58.4241 17.892C58.7707 17.892 59.0604 17.7969 59.2934 17.6065C59.5263 17.4134 59.6996 17.1548 59.8133 16.831C59.9297 16.5071 59.988 16.1463 59.988 15.7486C59.988 15.348 59.9297 14.9858 59.8133 14.6619C59.6996 14.3352 59.5263 14.0753 59.2934 13.8821C59.0604 13.6889 58.7707 13.5923 58.4241 13.5923C58.0689 13.5923 57.7735 13.6889 57.5377 13.8821C57.3047 14.0753 57.13 14.3352 57.0136 14.6619C56.8999 14.9858 56.8431 15.348 56.8431 15.7486C56.8431 16.1463 56.8999 16.5071 57.0136 16.831C57.13 17.1548 57.3047 17.4134 57.5377 17.6065C57.7735 17.7969 58.0689 17.892 58.4241 17.892ZM63.7846 19L61.9351 12.4545H63.5076L64.6581 17.0568H64.7178L65.8939 12.4545H67.4493L68.6255 17.0312H68.6894L69.8229 12.4545H71.3996L69.5459 19H67.9394L66.7121 14.5767H66.6226L65.3954 19H63.7846ZM73.7793 15.1648V19H72.2367V12.4545H73.7111V13.5668H73.7878C73.9384 13.2003 74.1784 12.9091 74.508 12.6932C74.8404 12.4773 75.2509 12.3693 75.7395 12.3693C76.1912 12.3693 76.5847 12.4659 76.9199 12.6591C77.258 12.8523 77.5193 13.1321 77.704 13.4986C77.8915 13.8651 77.9838 14.3097 77.981 14.8324V19H76.4384V15.071C76.4384 14.6335 76.3247 14.2912 76.0975 14.044C75.873 13.7969 75.562 13.6733 75.1642 13.6733C74.8943 13.6733 74.6543 13.733 74.4441 13.8523C74.2367 13.9687 74.0733 14.1378 73.954 14.3594C73.8375 14.581 73.7793 14.8494 73.7793 15.1648ZM80.8518 10.2727V19H79.3092V10.2727H80.8518ZM85.0532 19.1278C84.414 19.1278 83.86 18.9872 83.3913 18.706C82.9225 18.4247 82.5589 18.0312 82.3004 17.5256C82.0447 17.0199 81.9168 16.429 81.9168 15.7528C81.9168 15.0767 82.0447 14.4844 82.3004 13.9759C82.5589 13.4673 82.9225 13.0724 83.3913 12.7912C83.86 12.5099 84.414 12.3693 85.0532 12.3693C85.6924 12.3693 86.2464 12.5099 86.7151 12.7912C87.1839 13.0724 87.5461 13.4673 87.8018 13.9759C88.0603 14.4844 88.1896 15.0767 88.1896 15.7528C88.1896 16.429 88.0603 17.0199 87.8018 17.5256C87.5461 18.0312 87.1839 18.4247 86.7151 18.706C86.2464 18.9872 85.6924 19.1278 85.0532 19.1278ZM85.0617 17.892C85.4083 17.892 85.6981 17.7969 85.931 17.6065C86.164 17.4134 86.3373 17.1548 86.4509 16.831C86.5674 16.5071 86.6256 16.1463 86.6256 15.7486C86.6256 15.348 86.5674 14.9858 86.4509 14.6619C86.3373 14.3352 86.164 14.0753 85.931 13.8821C85.6981 13.6889 85.4083 13.5923 85.0617 13.5923C84.7066 13.5923 84.4111 13.6889 84.1754 13.8821C83.9424 14.0753 83.7677 14.3352 83.6512 14.6619C83.5376 14.9858 83.4808 15.348 83.4808 15.7486C83.4808 16.1463 83.5376 16.5071 83.6512 16.831C83.7677 17.1548 83.9424 17.4134 84.1754 17.6065C84.4111 17.7969 84.7066 17.892 85.0617 17.892ZM91.1424 19.1321C90.7276 19.1321 90.354 19.0582 90.0216 18.9105C89.6921 18.7599 89.4307 18.5384 89.2376 18.2457C89.0472 17.9531 88.952 17.5923 88.952 17.1634C88.952 16.794 89.0202 16.4886 89.1566 16.2472C89.293 16.0057 89.479 15.8125 89.7148 15.6676C89.9506 15.5227 90.2163 15.4134 90.5117 15.3395C90.81 15.2628 91.1182 15.2074 91.4364 15.1733C91.8199 15.1335 92.131 15.098 92.3697 15.0668C92.6083 15.0327 92.7816 14.9815 92.8895 14.9134C93.0003 14.8423 93.0557 14.733 93.0557 14.5852V14.5597C93.0557 14.2386 92.9606 13.9901 92.7702 13.8139C92.5799 13.6378 92.3057 13.5497 91.9478 13.5497C91.5699 13.5497 91.2702 13.6321 91.0486 13.7969C90.8299 13.9616 90.6822 14.1562 90.6055 14.3807L89.1651 14.1761C89.2788 13.7784 89.4663 13.446 89.7276 13.179C89.989 12.9091 90.3086 12.7074 90.6864 12.5739C91.0643 12.4375 91.4819 12.3693 91.9393 12.3693C92.2546 12.3693 92.5685 12.4062 92.881 12.4801C93.1935 12.554 93.479 12.6761 93.7376 12.8466C93.9961 13.0142 94.2035 13.2429 94.3597 13.5327C94.5188 13.8224 94.5984 14.1847 94.5984 14.6193V19H93.1154V18.1009H93.0643C92.9705 18.2827 92.8384 18.4531 92.668 18.6122C92.5003 18.7685 92.2887 18.8949 92.033 18.9915C91.7802 19.0852 91.4833 19.1321 91.1424 19.1321ZM91.543 17.9986C91.8526 17.9986 92.1211 17.9375 92.3484 17.8153C92.5756 17.6903 92.7503 17.5256 92.8725 17.321C92.9975 17.1165 93.06 16.8935 93.06 16.652V15.8807C93.0117 15.9205 92.9293 15.9574 92.8128 15.9915C92.6992 16.0256 92.5714 16.0554 92.4293 16.081C92.2873 16.1065 92.1466 16.1293 92.0074 16.1491C91.8682 16.169 91.7475 16.1861 91.6452 16.2003C91.4151 16.2315 91.2091 16.2827 91.0273 16.3537C90.8455 16.4247 90.702 16.5241 90.5969 16.652C90.4918 16.777 90.4393 16.9389 90.4393 17.1378C90.4393 17.4219 90.543 17.6364 90.7503 17.7812C90.9577 17.9261 91.2219 17.9986 91.543 17.9986ZM98.3385 19.1151C97.8243 19.1151 97.364 18.983 96.9578 18.7188C96.5515 18.4545 96.2305 18.071 95.9947 17.5682C95.7589 17.0653 95.641 16.4545 95.641 15.7358C95.641 15.0085 95.7603 14.3949 95.999 13.8949C96.2405 13.392 96.5657 13.0128 96.9748 12.7571C97.3839 12.4986 97.8399 12.3693 98.3427 12.3693C98.7262 12.3693 99.0416 12.4347 99.2887 12.5653C99.5359 12.6932 99.7319 12.848 99.8768 13.0298C100.022 13.2088 100.134 13.3778 100.213 13.5369H100.277V10.2727H101.824V19H100.307V17.9688H100.213C100.134 18.1278 100.019 18.2969 99.8683 18.4759C99.7177 18.652 99.5189 18.8026 99.2717 18.9276C99.0245 19.0526 98.7135 19.1151 98.3385 19.1151ZM98.7689 17.8494C99.0956 17.8494 99.374 17.7614 99.6041 17.5852C99.8342 17.4062 100.009 17.1577 100.128 16.8395C100.248 16.5213 100.307 16.1506 100.307 15.7273C100.307 15.304 100.248 14.9361 100.128 14.6236C100.012 14.3111 99.8385 14.0682 99.6084 13.8949C99.3811 13.7216 99.1012 13.6349 98.7689 13.6349C98.4251 13.6349 98.1382 13.7244 97.9081 13.9034C97.678 14.0824 97.5047 14.3295 97.3882 14.6449C97.2717 14.9602 97.2135 15.321 97.2135 15.7273C97.2135 16.1364 97.2717 16.5014 97.3882 16.8224C97.5075 17.1406 97.6822 17.392 97.9123 17.5767C98.1453 17.7585 98.4308 17.8494 98.7689 17.8494ZM108.82 19.1278C108.181 19.1278 107.627 18.9872 107.158 18.706C106.689 18.4247 106.325 18.0312 106.067 17.5256C105.811 17.0199 105.683 16.429 105.683 15.7528C105.683 15.0767 105.811 14.4844 106.067 13.9759C106.325 13.4673 106.689 13.0724 107.158 12.7912C107.627 12.5099 108.181 12.3693 108.82 12.3693C109.459 12.3693 110.013 12.5099 110.482 12.7912C110.95 13.0724 111.313 13.4673 111.568 13.9759C111.827 14.4844 111.956 15.0767 111.956 15.7528C111.956 16.429 111.827 17.0199 111.568 17.5256C111.313 18.0312 110.95 18.4247 110.482 18.706C110.013 18.9872 109.459 19.1278 108.82 19.1278ZM108.828 17.892C109.175 17.892 109.465 17.7969 109.698 17.6065C109.931 17.4134 110.104 17.1548 110.217 16.831C110.334 16.5071 110.392 16.1463 110.392 15.7486C110.392 15.348 110.334 14.9858 110.217 14.6619C110.104 14.3352 109.931 14.0753 109.698 13.8821C109.465 13.6889 109.175 13.5923 108.828 13.5923C108.473 13.5923 108.178 13.6889 107.942 13.8821C107.709 14.0753 107.534 14.3352 107.418 14.6619C107.304 14.9858 107.247 15.348 107.247 15.7486C107.247 16.1463 107.304 16.5071 107.418 16.831C107.534 17.1548 107.709 17.4134 107.942 17.6065C108.178 17.7969 108.473 17.892 108.828 17.892ZM114.568 15.1648V19H113.025V12.4545H114.5V13.5668H114.577C114.727 13.2003 114.967 12.9091 115.297 12.6932C115.629 12.4773 116.04 12.3693 116.528 12.3693C116.98 12.3693 117.373 12.4659 117.709 12.6591C118.047 12.8523 118.308 13.1321 118.493 13.4986C118.68 13.8651 118.773 14.3097 118.77 14.8324V19H117.227V15.071C117.227 14.6335 117.113 14.2912 116.886 14.044C116.662 13.7969 116.351 13.6733 115.953 13.6733C115.683 13.6733 115.443 13.733 115.233 13.8523C115.025 13.9687 114.862 14.1378 114.743 14.3594C114.626 14.581 114.568 14.8494 114.568 15.1648ZM126.103 12.4545V13.6477H122.34V12.4545H126.103ZM123.269 10.8864H124.812V17.0312C124.812 17.2386 124.843 17.3977 124.906 17.5085C124.971 17.6165 125.056 17.6903 125.161 17.7301C125.266 17.7699 125.383 17.7898 125.511 17.7898C125.607 17.7898 125.695 17.7827 125.775 17.7685C125.857 17.7543 125.92 17.7415 125.962 17.7301L126.222 18.9361C126.14 18.9645 126.022 18.9957 125.869 19.0298C125.718 19.0639 125.533 19.0838 125.315 19.0895C124.928 19.1009 124.58 19.0426 124.271 18.9148C123.961 18.7841 123.715 18.5824 123.533 18.3097C123.354 18.0369 123.266 17.696 123.269 17.2869V10.8864ZM128.836 15.1648V19H127.294V10.2727H128.802V13.5668H128.879C129.032 13.1974 129.27 12.9062 129.591 12.6932C129.914 12.4773 130.326 12.3693 130.826 12.3693C131.281 12.3693 131.677 12.4645 132.015 12.6548C132.353 12.8452 132.615 13.1236 132.799 13.4901C132.987 13.8565 133.081 14.304 133.081 14.8324V19H131.538V15.071C131.538 14.6307 131.424 14.2884 131.197 14.044C130.973 13.7969 130.657 13.6733 130.251 13.6733C129.978 13.6733 129.734 13.733 129.518 13.8523C129.305 13.9687 129.137 14.1378 129.015 14.3594C128.896 14.581 128.836 14.8494 128.836 15.1648ZM137.311 19.1278C136.655 19.1278 136.088 18.9915 135.611 18.7188C135.136 18.4432 134.771 18.054 134.515 17.5511C134.26 17.0455 134.132 16.4503 134.132 15.7656C134.132 15.0923 134.26 14.5014 134.515 13.9929C134.774 13.4815 135.135 13.0838 135.598 12.7997C136.061 12.5128 136.605 12.3693 137.23 12.3693C137.633 12.3693 138.014 12.4347 138.372 12.5653C138.733 12.6932 139.051 12.892 139.326 13.1619C139.605 13.4318 139.824 13.7756 139.983 14.1932C140.142 14.608 140.221 15.1023 140.221 15.6761V16.1491H134.856V15.1094H138.743C138.74 14.8139 138.676 14.5511 138.551 14.321C138.426 14.0881 138.251 13.9048 138.027 13.7713C137.805 13.6378 137.547 13.571 137.251 13.571C136.936 13.571 136.659 13.6477 136.42 13.8011C136.182 13.9517 135.995 14.1506 135.862 14.3977C135.731 14.642 135.665 14.9105 135.662 15.2031V16.1108C135.662 16.4915 135.731 16.8182 135.87 17.0909C136.01 17.3608 136.204 17.5682 136.454 17.7131C136.704 17.8551 136.997 17.9261 137.332 17.9261C137.557 17.9261 137.76 17.8949 137.941 17.8324C138.123 17.767 138.281 17.6719 138.415 17.5469C138.548 17.4219 138.649 17.267 138.717 17.0824L140.157 17.2443C140.066 17.625 139.893 17.9574 139.638 18.2415C139.385 18.5227 139.061 18.7415 138.666 18.8977C138.271 19.0511 137.819 19.1278 137.311 19.1278Z" fill="#B1B1B1"/>
<path d="M49.9453 41H46.8516L52.4844 25H56.0625L61.7031 41H58.6094L54.3359 28.2812H54.2109L49.9453 41ZM50.0469 34.7266H58.4844V37.0547H50.0469V34.7266ZM63.2455 45.5V29H66.0268V30.9844H66.1909C66.3367 30.6927 66.5424 30.3828 66.808 30.0547C67.0737 29.7214 67.433 29.4375 67.8862 29.2031C68.3393 28.9635 68.9174 28.8438 69.6205 28.8438C70.5476 28.8438 71.3836 29.0807 72.1284 29.5547C72.8784 30.0234 73.4721 30.7187 73.9096 31.6406C74.3523 32.5573 74.5737 33.6823 74.5737 35.0156C74.5737 36.3333 74.3575 37.4531 73.9252 38.375C73.4929 39.2969 72.9044 40 72.1596 40.4844C71.4148 40.9688 70.5711 41.2109 69.6284 41.2109C68.9409 41.2109 68.3705 41.0964 67.9174 40.8672C67.4643 40.638 67.0997 40.362 66.8237 40.0391C66.5528 39.7109 66.3419 39.401 66.1909 39.1094H66.0737V45.5H63.2455ZM66.019 35C66.019 35.776 66.1284 36.4557 66.3471 37.0391C66.5711 37.6224 66.8914 38.0781 67.308 38.4062C67.7299 38.7292 68.2403 38.8906 68.8393 38.8906C69.4643 38.8906 69.9877 38.724 70.4096 38.3906C70.8315 38.0521 71.1492 37.5911 71.3627 37.0078C71.5815 36.4193 71.6909 35.75 71.6909 35C71.6909 34.2552 71.5841 33.5937 71.3705 33.0156C71.157 32.4375 70.8393 31.9844 70.4174 31.6562C69.9955 31.3281 69.4695 31.1641 68.8393 31.1641C68.2351 31.1641 67.7221 31.3229 67.3002 31.6406C66.8784 31.9583 66.558 32.4036 66.3393 32.9766C66.1258 33.5495 66.019 34.224 66.019 35ZM76.5555 45.5V29H79.3368V30.9844H79.5009C79.6467 30.6927 79.8524 30.3828 80.118 30.0547C80.3837 29.7214 80.743 29.4375 81.1962 29.2031C81.6493 28.9635 82.2274 28.8438 82.9305 28.8438C83.8576 28.8438 84.6936 29.0807 85.4384 29.5547C86.1884 30.0234 86.7821 30.7187 87.2196 31.6406C87.6623 32.5573 87.8837 33.6823 87.8837 35.0156C87.8837 36.3333 87.6675 37.4531 87.2352 38.375C86.8029 39.2969 86.2144 40 85.4696 40.4844C84.7248 40.9688 83.8811 41.2109 82.9384 41.2109C82.2509 41.2109 81.6805 41.0964 81.2274 40.8672C80.7743 40.638 80.4097 40.362 80.1337 40.0391C79.8628 39.7109 79.6519 39.401 79.5009 39.1094H79.3837V45.5H76.5555ZM79.329 35C79.329 35.776 79.4384 36.4557 79.6571 37.0391C79.8811 37.6224 80.2014 38.0781 80.618 38.4062C81.0399 38.7292 81.5503 38.8906 82.1493 38.8906C82.7743 38.8906 83.2977 38.724 83.7196 38.3906C84.1415 38.0521 84.4592 37.5911 84.6727 37.0078C84.8915 36.4193 85.0009 35.75 85.0009 35C85.0009 34.2552 84.8941 33.5937 84.6805 33.0156C84.467 32.4375 84.1493 31.9844 83.7274 31.6562C83.3055 31.3281 82.7795 31.1641 82.1493 31.1641C81.5451 31.1641 81.0321 31.3229 80.6102 31.6406C80.1884 31.9583 79.868 32.4036 79.6493 32.9766C79.4358 33.5495 79.329 34.224 79.329 35ZM103.703 29.3984C103.63 28.7161 103.323 28.1849 102.781 27.8047C102.245 27.4245 101.547 27.2344 100.687 27.2344C100.083 27.2344 99.5649 27.3255 99.1326 27.5078C98.7003 27.6901 98.3696 27.9375 98.1404 28.25C97.9112 28.5625 97.794 28.9193 97.7888 29.3203C97.7888 29.6536 97.8644 29.9427 98.0154 30.1875C98.1716 30.4323 98.3826 30.6406 98.6482 30.8125C98.9138 30.9792 99.2081 31.1198 99.531 31.2344C99.8539 31.349 100.179 31.4453 100.508 31.5234L102.008 31.8984C102.612 32.0391 103.192 32.2292 103.75 32.4687C104.312 32.7083 104.815 33.0104 105.258 33.375C105.705 33.7396 106.06 34.1797 106.32 34.6953C106.58 35.2109 106.711 35.8151 106.711 36.5078C106.711 37.4453 106.471 38.2708 105.992 38.9844C105.513 39.6927 104.82 40.2474 103.914 40.6484C103.013 41.0443 101.922 41.2422 100.64 41.2422C99.3956 41.2422 98.3149 41.0495 97.3982 40.6641C96.4867 40.2786 95.7732 39.7161 95.2576 38.9766C94.7472 38.237 94.4711 37.3359 94.4295 36.2734H97.281C97.3227 36.8307 97.4946 37.2943 97.7966 37.6641C98.0987 38.0339 98.492 38.3099 98.9763 38.4922C99.4659 38.6745 100.013 38.7656 100.617 38.7656C101.247 38.7656 101.799 38.6719 102.273 38.4844C102.752 38.2917 103.127 38.026 103.398 37.6875C103.669 37.3437 103.807 36.9427 103.812 36.4844C103.807 36.0677 103.685 35.724 103.445 35.4531C103.205 35.1771 102.87 34.9479 102.437 34.7656C102.01 34.5781 101.51 34.4115 100.937 34.2656L99.117 33.7969C97.7992 33.4583 96.7576 32.9453 95.992 32.2578C95.2315 31.5651 94.8513 30.6458 94.8513 29.5C94.8513 28.5573 95.1065 27.7318 95.617 27.0234C96.1326 26.3151 96.8331 25.7656 97.7185 25.375C98.6039 24.9792 99.6065 24.7812 100.726 24.7812C101.862 24.7812 102.857 24.9792 103.711 25.375C104.57 25.7656 105.245 26.3099 105.734 27.0078C106.224 27.7005 106.476 28.4974 106.492 29.3984H103.703ZM114.722 29V31.1875H107.823V29H114.722ZM109.527 26.125H112.355V37.3906C112.355 37.7708 112.412 38.0625 112.527 38.2656C112.646 38.4635 112.803 38.599 112.995 38.6719C113.188 38.7448 113.402 38.7812 113.636 38.7812C113.813 38.7812 113.974 38.7682 114.12 38.7422C114.271 38.7161 114.386 38.6927 114.464 38.6719L114.941 40.8828C114.79 40.9349 114.573 40.9922 114.292 41.0547C114.016 41.1172 113.678 41.1536 113.277 41.1641C112.568 41.1849 111.93 41.0781 111.362 40.8437C110.795 40.6042 110.344 40.2344 110.011 39.7344C109.683 39.2344 109.521 38.6094 109.527 37.8594V26.125ZM121.753 41.2344C120.581 41.2344 119.565 40.9766 118.706 40.4609C117.846 39.9453 117.18 39.224 116.706 38.2969C116.237 37.3698 116.003 36.2865 116.003 35.0469C116.003 33.8073 116.237 32.7214 116.706 31.7891C117.18 30.8568 117.846 30.1328 118.706 29.6172C119.565 29.1016 120.581 28.8438 121.753 28.8438C122.924 28.8438 123.94 29.1016 124.799 29.6172C125.659 30.1328 126.323 30.8568 126.792 31.7891C127.266 32.7214 127.503 33.8073 127.503 35.0469C127.503 36.2865 127.266 37.3698 126.792 38.2969C126.323 39.224 125.659 39.9453 124.799 40.4609C123.94 40.9766 122.924 41.2344 121.753 41.2344ZM121.768 38.9687C122.404 38.9687 122.935 38.7943 123.362 38.4453C123.789 38.0911 124.107 37.6172 124.315 37.0234C124.529 36.4297 124.635 35.7682 124.635 35.0391C124.635 34.3047 124.529 33.6406 124.315 33.0469C124.107 32.4479 123.789 31.9714 123.362 31.6172C122.935 31.263 122.404 31.0859 121.768 31.0859C121.117 31.0859 120.575 31.263 120.143 31.6172C119.716 31.9714 119.396 32.4479 119.182 33.0469C118.974 33.6406 118.87 34.3047 118.87 35.0391C118.87 35.7682 118.974 36.4297 119.182 37.0234C119.396 37.6172 119.716 38.0911 120.143 38.4453C120.575 38.7943 121.117 38.9687 121.768 38.9687ZM129.463 41V29H132.205V31H132.33C132.549 30.3073 132.924 29.7734 133.455 29.3984C133.992 29.0182 134.604 28.8281 135.291 28.8281C135.447 28.8281 135.622 28.8359 135.815 28.8516C136.012 28.862 136.177 28.8802 136.307 28.9062V31.5078C136.187 31.4661 135.997 31.4297 135.736 31.3984C135.481 31.362 135.234 31.3437 134.994 31.3437C134.479 31.3437 134.015 31.4557 133.604 31.6797C133.197 31.8984 132.877 32.2031 132.643 32.5937C132.408 32.9844 132.291 33.4349 132.291 33.9453V41H129.463ZM142.564 41.2344C141.361 41.2344 140.322 40.9844 139.447 40.4844C138.577 39.9792 137.908 39.2656 137.439 38.3437C136.97 37.4167 136.736 36.3255 136.736 35.0703C136.736 33.8359 136.97 32.7526 137.439 31.8203C137.913 30.8828 138.574 30.1536 139.423 29.6328C140.272 29.1068 141.27 28.8438 142.416 28.8438C143.155 28.8438 143.853 28.9635 144.509 29.2031C145.171 29.4375 145.754 29.8021 146.259 30.2969C146.77 30.7917 147.171 31.4219 147.462 32.1875C147.754 32.9479 147.9 33.8542 147.9 34.9062V35.7734H138.064V33.8672H145.189C145.184 33.3255 145.067 32.8437 144.837 32.4219C144.608 31.9948 144.288 31.6589 143.876 31.4141C143.47 31.1693 142.996 31.0469 142.455 31.0469C141.876 31.0469 141.369 31.1875 140.931 31.4687C140.494 31.7448 140.153 32.1094 139.908 32.5625C139.668 33.0104 139.546 33.5026 139.541 34.0391V35.7031C139.541 36.401 139.668 37 139.923 37.5C140.179 37.9948 140.535 38.375 140.994 38.6406C141.452 38.901 141.988 39.0312 142.603 39.0312C143.015 39.0312 143.387 38.974 143.72 38.8594C144.054 38.7396 144.343 38.5651 144.587 38.3359C144.832 38.1068 145.017 37.8229 145.142 37.4844L147.783 37.7812C147.616 38.4792 147.298 39.0885 146.83 39.6094C146.366 40.125 145.772 40.526 145.048 40.8125C144.324 41.0937 143.496 41.2344 142.564 41.2344Z" fill="#B1B1B1"/>
</svg>
