<svg width="33" height="31" viewBox="0 0 33 31" fill="none" xmlns="http://www.w3.org/2000/svg">
<path d="M22.77 15.5C22.77 19.6338 21.9566 23.3148 20.6981 25.9157C19.3975 28.6036 17.8409 29.75 16.52 29.75C15.1991 29.75 13.6425 28.6036 12.3419 25.9157C11.0834 23.3148 10.27 19.6338 10.27 15.5C10.27 11.3662 11.0834 7.68524 12.3419 5.0843C13.6425 2.39642 15.1991 1.25 16.52 1.25C17.8409 1.25 19.3975 2.39642 20.6981 5.0843C21.9566 7.68524 22.77 11.3662 22.77 15.5Z" stroke="#7BF467" stroke-width="2.5"/>
<path d="M16.5034 9.70876C20.6435 9.69702 24.3328 10.4704 26.9416 11.6761C29.653 12.9292 30.7669 14.4179 30.7703 15.635C30.7738 16.8522 29.6684 18.3472 26.9641 19.6157C24.3622 20.8361 20.6773 21.6304 16.5373 21.6421C12.3973 21.6539 8.70791 20.8805 6.09912 19.6748C3.38773 18.4218 2.27388 16.933 2.27042 15.7159C2.26697 14.4987 3.37237 13.0037 6.07661 11.7353C8.67852 10.5148 12.3634 9.7205 16.5034 9.70876Z" stroke="#222222" stroke-width="2.5"/>
<path d="M2.02002 16H31.02" stroke="#33363F" stroke-width="2.5" stroke-linecap="round"/>
<circle cx="16.52" cy="15.5" r="14.25" stroke="#222222" stroke-width="2.5"/>
</svg>
