<svg width="32" height="33" viewBox="0 0 32 33" fill="none" xmlns="http://www.w3.org/2000/svg">
<path d="M6 32H1V27.5H31V32H9M1 6V10.5L15.5 7L30.5 10.5V6L15.5 2L1 6Z" stroke="#080233" stroke-width="2"/>
<line x1="4" y1="10" x2="4" y2="27" stroke="#080233" stroke-width="2"/>
<line x1="8" y1="9" x2="8" y2="27" stroke="#080233" stroke-width="2"/>
<line x1="24" y1="9" x2="24" y2="27" stroke="#080233" stroke-width="2"/>
<line x1="29" y1="10" x2="29" y2="27" stroke="#080233" stroke-width="2"/>
<path d="M15.1861 24.2727V11.5455H16.0014V24.2727H15.1861ZM17.5376 15.6172C17.4912 15.183 17.2957 14.8449 16.951 14.603C16.6096 14.361 16.1655 14.2401 15.6186 14.2401C15.2341 14.2401 14.9044 14.2981 14.6293 14.4141C14.3542 14.5301 14.1437 14.6875 13.9979 14.8864C13.852 15.0852 13.7775 15.3123 13.7741 15.5675C13.7741 15.7796 13.8222 15.9635 13.9183 16.1193C14.0178 16.2751 14.152 16.4077 14.321 16.517C14.4901 16.6231 14.6773 16.7126 14.8828 16.7855C15.0883 16.8584 15.2955 16.9197 15.5043 16.9695L16.4588 17.2081C16.8433 17.2976 17.2128 17.4186 17.5675 17.571C17.9254 17.7235 18.2453 17.9157 18.527 18.1477C18.812 18.3797 19.0374 18.6598 19.2031 18.9879C19.3688 19.3161 19.4517 19.7005 19.4517 20.1413C19.4517 20.7379 19.2992 21.2633 18.9943 21.7173C18.6894 22.1681 18.2486 22.5211 17.6719 22.7763C17.0985 23.0282 16.4041 23.1541 15.5888 23.1541C14.7966 23.1541 14.1089 23.0315 13.5256 22.7862C12.9455 22.541 12.4915 22.183 12.1634 21.7124C11.8385 21.2417 11.6629 20.6683 11.6364 19.9922H13.451C13.4775 20.3468 13.5869 20.6418 13.7791 20.8771C13.9714 21.1125 14.2216 21.2881 14.5298 21.4041C14.8414 21.5201 15.1894 21.5781 15.5739 21.5781C15.9749 21.5781 16.3262 21.5185 16.6278 21.3991C16.9328 21.2765 17.1714 21.1075 17.3438 20.892C17.5161 20.6733 17.6039 20.4181 17.6072 20.1264C17.6039 19.8613 17.526 19.6425 17.3736 19.4702C17.2211 19.2945 17.0073 19.1487 16.7322 19.0327C16.4605 18.9134 16.1423 18.8073 15.7777 18.7145L14.6193 18.4162C13.7808 18.2008 13.1179 17.8743 12.6307 17.4368C12.1468 16.996 11.9048 16.411 11.9048 15.6818C11.9048 15.0819 12.0672 14.5566 12.392 14.1058C12.7202 13.6551 13.166 13.3054 13.7294 13.0568C14.2929 12.8049 14.9309 12.679 15.6435 12.679C16.366 12.679 16.9991 12.8049 17.5426 13.0568C18.0895 13.3054 18.5187 13.6518 18.8303 14.0959C19.1418 14.5367 19.3026 15.0438 19.3125 15.6172H17.5376Z" fill="#7BDF8A"/>
</svg>
