<svg width="337" height="40" viewBox="0 0 337 40" fill="none" xmlns="http://www.w3.org/2000/svg">
<path d="M1.76136 27V12.4545H10.5398V14.017H3.52273V18.9318H10.0852V20.4943H3.52273V25.4375H10.6534V27H1.76136ZM14.3372 16.0909L16.9509 20.5511L19.5645 16.0909H21.4963L17.9736 21.5455L21.4963 27H19.5645L16.9509 22.767L14.3372 27H12.4054L15.8713 21.5455L12.4054 16.0909H14.3372ZM27.4706 27.2273C26.4479 27.2273 25.5672 26.9858 24.8286 26.5028C24.0899 26.0199 23.5217 25.3546 23.124 24.5071C22.7263 23.6596 22.5274 22.6913 22.5274 21.6023C22.5274 20.4943 22.731 19.5166 23.1382 18.669C23.5501 17.8168 24.1231 17.1515 24.857 16.6733C25.5956 16.1903 26.4573 15.9489 27.4422 15.9489C28.2092 15.9489 28.9005 16.0909 29.5161 16.375C30.1316 16.6591 30.6358 17.0568 31.0288 17.5682C31.4218 18.0795 31.6657 18.6761 31.7604 19.358H30.0842C29.9564 18.8608 29.6723 18.4205 29.232 18.0369C28.7964 17.6487 28.2092 17.4545 27.4706 17.4545C26.8172 17.4545 26.2443 17.625 25.7518 17.9659C25.2642 18.3021 24.883 18.7779 24.6084 19.3935C24.3385 20.0043 24.2036 20.7216 24.2036 21.5455C24.2036 22.3883 24.3361 23.1222 24.6013 23.7472C24.8712 24.3722 25.25 24.8575 25.7376 25.2031C26.2301 25.5488 26.8077 25.7216 27.4706 25.7216C27.9062 25.7216 28.3016 25.6458 28.6567 25.4943C29.0118 25.3428 29.3125 25.125 29.5587 24.8409C29.8049 24.5568 29.9801 24.2159 30.0842 23.8182H31.7604C31.6657 24.4621 31.4313 25.0421 31.0572 25.5582C30.6879 26.0696 30.1979 26.4768 29.5871 26.7798C28.981 27.0781 28.2755 27.2273 27.4706 27.2273ZM38.3845 27.2273C37.3334 27.2273 36.4267 26.9953 35.6643 26.5312C34.9068 26.0625 34.322 25.4091 33.9101 24.571C33.5029 23.7282 33.2993 22.7481 33.2993 21.6307C33.2993 20.5133 33.5029 19.5284 33.9101 18.6761C34.322 17.8191 34.8949 17.1515 35.6288 16.6733C36.3675 16.1903 37.2292 15.9489 38.2141 15.9489C38.7822 15.9489 39.3433 16.0436 39.8973 16.233C40.4513 16.4223 40.9555 16.7301 41.4101 17.1562C41.8646 17.5777 42.2268 18.1364 42.4967 18.8324C42.7666 19.5284 42.9016 20.3854 42.9016 21.4034V22.1136H34.4925V20.6648H41.197C41.197 20.0492 41.0739 19.5 40.8277 19.017C40.5862 18.5341 40.2406 18.1529 39.7908 17.8736C39.3457 17.5942 38.8201 17.4545 38.2141 17.4545C37.5464 17.4545 36.9688 17.6203 36.4811 17.9517C35.9982 18.2784 35.6265 18.7045 35.3661 19.2301C35.1056 19.7557 34.9754 20.3191 34.9754 20.9205V21.8864C34.9754 22.7102 35.1175 23.4086 35.4016 23.9815C35.6904 24.5497 36.0905 24.983 36.6018 25.2812C37.1132 25.5748 37.7074 25.7216 38.3845 25.7216C38.8249 25.7216 39.2226 25.66 39.5777 25.5369C39.9375 25.4091 40.2477 25.2197 40.5081 24.9688C40.7685 24.7131 40.9697 24.3958 41.1118 24.017L42.7311 24.4716C42.5607 25.0208 42.2742 25.5038 41.8717 25.9205C41.4693 26.3324 40.9721 26.6544 40.3803 26.8864C39.7884 27.1136 39.1232 27.2273 38.3845 27.2273ZM46.7274 12.4545V27H45.0513V12.4545H46.7274ZM51.0735 12.4545V27H49.3974V12.4545H51.0735ZM58.3173 27.2273C57.2662 27.2273 56.3595 26.9953 55.5972 26.5312C54.8396 26.0625 54.2548 25.4091 53.8429 24.571C53.4357 23.7282 53.2321 22.7481 53.2321 21.6307C53.2321 20.5133 53.4357 19.5284 53.8429 18.6761C54.2548 17.8191 54.8277 17.1515 55.5616 16.6733C56.3003 16.1903 57.162 15.9489 58.1469 15.9489C58.7151 15.9489 59.2761 16.0436 59.8301 16.233C60.3841 16.4223 60.8884 16.7301 61.3429 17.1562C61.7974 17.5777 62.1597 18.1364 62.4295 18.8324C62.6994 19.5284 62.8344 20.3854 62.8344 21.4034V22.1136H54.4253V20.6648H61.1298C61.1298 20.0492 61.0067 19.5 60.7605 19.017C60.519 18.5341 60.1734 18.1529 59.7236 17.8736C59.2785 17.5942 58.7529 17.4545 58.1469 17.4545C57.4793 17.4545 56.9016 17.6203 56.4139 17.9517C55.931 18.2784 55.5593 18.7045 55.2989 19.2301C55.0384 19.7557 54.9082 20.3191 54.9082 20.9205V21.8864C54.9082 22.7102 55.0503 23.4086 55.3344 23.9815C55.6232 24.5497 56.0233 24.983 56.5347 25.2812C57.046 25.5748 57.6402 25.7216 58.3173 25.7216C58.7577 25.7216 59.1554 25.66 59.5105 25.5369C59.8704 25.4091 60.1805 25.2197 60.4409 24.9688C60.7013 24.7131 60.9026 24.3958 61.0446 24.017L62.6639 24.4716C62.4935 25.0208 62.207 25.5038 61.8045 25.9205C61.4021 26.3324 60.9049 26.6544 60.3131 26.8864C59.7212 27.1136 59.056 27.2273 58.3173 27.2273ZM66.6602 20.4375V27H64.9841V16.0909H66.6034V17.7955H66.7455C67.0011 17.2415 67.3894 16.7964 67.9102 16.4602C68.4311 16.1193 69.1034 15.9489 69.9273 15.9489C70.6659 15.9489 71.3122 16.1004 71.8662 16.4034C72.4202 16.7017 72.851 17.1562 73.1588 17.767C73.4666 18.3731 73.6205 19.1402 73.6205 20.0682V27H71.9443V20.1818C71.9443 19.3248 71.7218 18.6572 71.2767 18.179C70.8316 17.696 70.2208 17.4545 69.4443 17.4545C68.9093 17.4545 68.4311 17.5705 68.0097 17.8026C67.593 18.0346 67.2639 18.3731 67.0224 18.8182C66.781 19.2633 66.6602 19.803 66.6602 20.4375ZM81.0276 16.0909V17.5114H75.3742V16.0909H81.0276ZM77.0219 13.4773H78.6981V23.875C78.6981 24.3485 78.7667 24.7036 78.9041 24.9403C79.0461 25.1723 79.226 25.3286 79.4438 25.4091C79.6664 25.4848 79.9007 25.5227 80.1469 25.5227C80.3316 25.5227 80.4831 25.5133 80.6015 25.4943C80.7199 25.4706 80.8146 25.4517 80.8856 25.4375L81.2265 26.9432C81.1129 26.9858 80.9542 27.0284 80.7506 27.071C80.547 27.1184 80.289 27.142 79.9765 27.142C79.503 27.142 79.039 27.0402 78.5844 26.8366C78.1346 26.633 77.7606 26.3229 77.4623 25.9062C77.1687 25.4896 77.0219 24.964 77.0219 24.3295V13.4773Z" fill="#E3E3E3"/>
<path d="M86.9844 24.4432V22.8452L92.6413 13.9091H93.9006V16.2614H93.1016L89.0554 22.6662V22.7685H96.8089V24.4432H86.9844ZM93.1911 27V23.9574L93.2038 23.2287V13.9091H95.0767V27H93.1911ZM99.4692 27.1214C99.1198 27.1214 98.8193 26.9979 98.5679 26.7507C98.3165 26.4993 98.1908 26.1967 98.1908 25.843C98.1908 25.4936 98.3165 25.1953 98.5679 24.9482C98.8193 24.6967 99.1198 24.571 99.4692 24.571C99.8186 24.571 100.119 24.6967 100.37 24.9482C100.622 25.1953 100.748 25.4936 100.748 25.843C100.748 26.0774 100.688 26.2926 100.569 26.4886C100.454 26.6804 100.3 26.8338 100.108 26.9489C99.9166 27.0639 99.7036 27.1214 99.4692 27.1214ZM107.117 13.7301C107.701 13.7344 108.276 13.8409 108.843 14.0497C109.409 14.2585 109.921 14.5994 110.377 15.0724C110.837 15.5455 111.203 16.1847 111.476 16.9901C111.753 17.7912 111.894 18.7884 111.898 19.9815C111.898 21.1278 111.783 22.1484 111.553 23.0433C111.323 23.9339 110.993 24.6861 110.562 25.2997C110.136 25.9134 109.618 26.38 109.009 26.6996C108.399 27.0192 107.713 27.179 106.951 27.179C106.171 27.179 105.478 27.0256 104.873 26.7188C104.268 26.4119 103.776 25.9879 103.397 25.4467C103.017 24.9013 102.781 24.2749 102.687 23.5675H104.637C104.765 24.13 105.024 24.5859 105.417 24.9354C105.813 25.2805 106.324 25.4531 106.951 25.4531C107.909 25.4531 108.657 25.0355 109.194 24.2003C109.731 23.3608 110.002 22.1889 110.006 20.6847H109.904C109.682 21.0511 109.405 21.3665 109.073 21.6307C108.745 21.8949 108.376 22.0994 107.967 22.2443C107.558 22.3892 107.121 22.4616 106.657 22.4616C105.902 22.4616 105.216 22.2763 104.598 21.9055C103.98 21.5348 103.488 21.0256 103.122 20.3778C102.755 19.7301 102.572 18.9908 102.572 18.1598C102.572 17.3331 102.76 16.5831 103.135 15.9098C103.514 15.2365 104.042 14.7038 104.72 14.3118C105.402 13.9155 106.201 13.7216 107.117 13.7301ZM107.123 15.392C106.625 15.392 106.175 15.5156 105.774 15.7628C105.378 16.0057 105.065 16.3359 104.835 16.7536C104.605 17.1669 104.49 17.6271 104.49 18.1342C104.49 18.6413 104.6 19.1016 104.822 19.5149C105.048 19.924 105.355 20.25 105.743 20.4929C106.135 20.7315 106.582 20.8509 107.085 20.8509C107.46 20.8509 107.809 20.7784 108.133 20.6335C108.457 20.4886 108.74 20.2884 108.983 20.0327C109.226 19.7727 109.416 19.4787 109.552 19.1506C109.689 18.8224 109.757 18.4773 109.757 18.1151C109.757 17.6335 109.642 17.1861 109.412 16.7727C109.186 16.3594 108.875 16.027 108.478 15.7756C108.082 15.5199 107.63 15.392 107.123 15.392ZM122.412 27.1982C121.492 27.1982 120.688 26.9872 120.002 26.5653C119.316 26.1435 118.784 25.5533 118.404 24.7947C118.025 24.0362 117.835 23.1499 117.835 22.1357C117.835 21.1172 118.025 20.2266 118.404 19.4638C118.784 18.701 119.316 18.1087 120.002 17.6868C120.688 17.2649 121.492 17.054 122.412 17.054C123.333 17.054 124.136 17.2649 124.822 17.6868C125.508 18.1087 126.041 18.701 126.42 19.4638C126.799 20.2266 126.989 21.1172 126.989 22.1357C126.989 23.1499 126.799 24.0362 126.42 24.7947C126.041 25.5533 125.508 26.1435 124.822 26.5653C124.136 26.9872 123.333 27.1982 122.412 27.1982ZM122.418 25.5938C123.015 25.5938 123.509 25.4361 123.901 25.1207C124.293 24.8054 124.583 24.3857 124.771 23.8615C124.963 23.3374 125.058 22.7599 125.058 22.1293C125.058 21.5028 124.963 20.9276 124.771 20.4034C124.583 19.875 124.293 19.451 123.901 19.1314C123.509 18.8118 123.015 18.652 122.418 18.652C121.818 18.652 121.319 18.8118 120.923 19.1314C120.531 19.451 120.239 19.875 120.047 20.4034C119.86 20.9276 119.766 21.5028 119.766 22.1293C119.766 22.7599 119.86 23.3374 120.047 23.8615C120.239 24.3857 120.531 24.8054 120.923 25.1207C121.319 25.4361 121.818 25.5938 122.418 25.5938ZM134.982 22.9283V17.1818H136.899V27H135.02V25.2997H134.918C134.692 25.8239 134.33 26.2607 133.831 26.6101C133.337 26.9553 132.721 27.1278 131.984 27.1278C131.353 27.1278 130.795 26.9893 130.309 26.7124C129.827 26.4311 129.448 26.0156 129.171 25.4659C128.899 24.9162 128.762 24.2365 128.762 23.4268V17.1818H130.673V23.1967C130.673 23.8658 130.859 24.3984 131.229 24.7947C131.6 25.1911 132.082 25.3892 132.674 25.3892C133.032 25.3892 133.388 25.2997 133.742 25.1207C134.1 24.9418 134.396 24.6712 134.63 24.3089C134.869 23.9467 134.986 23.4865 134.982 22.9283ZM143.69 17.1818V18.7159H138.327V17.1818H143.69ZM139.766 14.8295H141.677V24.1172C141.677 24.4879 141.732 24.767 141.843 24.9545C141.954 25.1378 142.097 25.2635 142.271 25.3317C142.45 25.3956 142.644 25.4276 142.853 25.4276C143.006 25.4276 143.141 25.4169 143.256 25.3956C143.371 25.3743 143.46 25.3572 143.524 25.3445L143.869 26.9233C143.759 26.9659 143.601 27.0085 143.396 27.0511C143.192 27.098 142.936 27.1236 142.629 27.1278C142.126 27.1364 141.658 27.0469 141.223 26.8594C140.788 26.6719 140.437 26.3821 140.168 25.9901C139.9 25.598 139.766 25.1058 139.766 24.5135V14.8295ZM153.984 27.1982C153.063 27.1982 152.26 26.9872 151.574 26.5653C150.888 26.1435 150.355 25.5533 149.976 24.7947C149.597 24.0362 149.407 23.1499 149.407 22.1357C149.407 21.1172 149.597 20.2266 149.976 19.4638C150.355 18.701 150.888 18.1087 151.574 17.6868C152.26 17.2649 153.063 17.054 153.984 17.054C154.904 17.054 155.708 17.2649 156.394 17.6868C157.08 18.1087 157.612 18.701 157.992 19.4638C158.371 20.2266 158.561 21.1172 158.561 22.1357C158.561 23.1499 158.371 24.0362 157.992 24.7947C157.612 25.5533 157.08 26.1435 156.394 26.5653C155.708 26.9872 154.904 27.1982 153.984 27.1982ZM153.99 25.5938C154.587 25.5938 155.081 25.4361 155.473 25.1207C155.865 24.8054 156.155 24.3857 156.342 23.8615C156.534 23.3374 156.63 22.7599 156.63 22.1293C156.63 21.5028 156.534 20.9276 156.342 20.4034C156.155 19.875 155.865 19.451 155.473 19.1314C155.081 18.8118 154.587 18.652 153.99 18.652C153.389 18.652 152.891 18.8118 152.494 19.1314C152.102 19.451 151.811 19.875 151.619 20.4034C151.431 20.9276 151.338 21.5028 151.338 22.1293C151.338 22.7599 151.431 23.3374 151.619 23.8615C151.811 24.3857 152.102 24.8054 152.494 25.1207C152.891 25.4361 153.389 25.5938 153.99 25.5938ZM165.006 17.1818V18.7159H159.458V17.1818H165.006ZM160.979 27V16.044C160.979 15.4304 161.114 14.9212 161.382 14.5163C161.651 14.1072 162.006 13.8026 162.45 13.6023C162.893 13.3977 163.374 13.2955 163.894 13.2955C164.278 13.2955 164.606 13.3274 164.879 13.3913C165.151 13.451 165.354 13.5064 165.486 13.5575L165.038 15.1044C164.949 15.0788 164.834 15.049 164.693 15.0149C164.553 14.9766 164.382 14.9574 164.182 14.9574C163.717 14.9574 163.385 15.0724 163.185 15.3026C162.989 15.5327 162.891 15.8651 162.891 16.2997V27H160.979ZM175.318 27.179C174.516 27.179 173.796 27.0256 173.157 26.7188C172.522 26.4077 172.015 25.9815 171.636 25.4403C171.256 24.8991 171.054 24.2812 171.028 23.5866H172.946C172.993 24.1491 173.242 24.6115 173.694 24.9737C174.146 25.3359 174.687 25.517 175.318 25.517C175.82 25.517 176.266 25.402 176.653 25.1719C177.046 24.9375 177.352 24.6158 177.574 24.2067C177.8 23.7976 177.913 23.331 177.913 22.8068C177.913 22.2741 177.798 21.799 177.568 21.3814C177.337 20.9638 177.02 20.6357 176.615 20.397C176.215 20.1584 175.754 20.0369 175.234 20.0327C174.838 20.0327 174.44 20.1009 174.039 20.2372C173.639 20.3736 173.315 20.5526 173.068 20.7741L171.259 20.5057L171.994 13.9091H179.191V15.603H173.636L173.221 19.2656H173.298C173.553 19.0185 173.892 18.8118 174.314 18.6456C174.74 18.4794 175.196 18.3963 175.682 18.3963C176.479 18.3963 177.188 18.5859 177.81 18.9652C178.437 19.3445 178.929 19.8622 179.287 20.5185C179.649 21.1705 179.828 21.9205 179.824 22.7685C179.828 23.6165 179.636 24.3729 179.249 25.0376C178.865 25.7024 178.332 26.2266 177.651 26.6101C176.973 26.9893 176.195 27.179 175.318 27.179Z" fill="#68AB74"/>
<path fill-rule="evenodd" clip-rule="evenodd" d="M220.562 17.8412C220.469 17.5746 220.216 17.4021 219.919 17.4021L213.836 17.3877L211.918 12.0758C211.822 11.8106 211.572 11.6322 211.269 11.6433C210.972 11.6466 210.72 11.8204 210.631 12.0876L208.835 17.3877L202.679 17.4021C202.381 17.4021 202.129 17.5746 202.036 17.8405C201.942 18.1071 202.037 18.3874 202.277 18.5533L207.095 21.8992L205.205 27.5228C205.115 27.79 205.212 28.0683 205.453 28.233C205.575 28.3153 205.713 28.3571 205.852 28.3571C205.99 28.3571 206.126 28.3166 206.245 28.2362L211.324 24.8649L216.353 28.2336C216.592 28.3983 216.905 28.3976 217.146 28.233C217.387 28.069 217.485 27.7906 217.395 27.5234L215.503 21.8992L220.32 18.554C220.56 18.3874 220.655 18.1071 220.562 17.8412Z" fill="#F4D356"/>
<path d="M220.562 17.8412C220.469 17.5746 220.216 17.4021 219.919 17.4021L213.836 17.3877L211.918 12.0758C211.822 11.8106 211.572 11.6322 211.269 11.6433C210.972 11.6466 210.72 11.8204 210.631 12.0876L208.835 17.3877L202.679 17.4021C202.381 17.4021 202.129 17.5746 202.036 17.8405C201.942 18.1071 202.037 18.3874 202.277 18.5533L207.095 21.8992L205.205 27.5228C205.115 27.79 205.212 28.0683 205.453 28.233C205.575 28.3153 205.713 28.3571 205.852 28.3571C205.99 28.3571 206.126 28.3166 206.245 28.2362L211.324 24.8649L216.353 28.2336C216.592 28.3983 216.905 28.3976 217.146 28.233C217.387 28.069 217.485 27.7906 217.395 27.5234L215.503 21.8992L220.32 18.554C220.56 18.3874 220.655 18.1071 220.562 17.8412" stroke="#F9D75B"/>
<path fill-rule="evenodd" clip-rule="evenodd" d="M249.159 17.8412C249.066 17.5746 248.813 17.4021 248.516 17.4021L242.433 17.3877L240.515 12.0758C240.419 11.8106 240.169 11.6322 239.866 11.6433C239.569 11.6466 239.317 11.8204 239.228 12.0876L237.432 17.3877L231.276 17.4021C230.978 17.4021 230.725 17.5746 230.632 17.8405C230.539 18.1071 230.634 18.3874 230.874 18.5533L235.692 21.8992L233.802 27.5228C233.712 27.79 233.809 28.0683 234.05 28.233C234.172 28.3153 234.31 28.3571 234.449 28.3571C234.586 28.3571 234.723 28.3166 234.842 28.2362L239.921 24.8649L244.949 28.2336C245.189 28.3983 245.502 28.3976 245.743 28.233C245.984 28.069 246.082 27.7906 245.992 27.5234L244.1 21.8992L248.917 18.554C249.157 18.3874 249.252 18.1071 249.159 17.8412Z" fill="#F4D356"/>
<path d="M249.159 17.8412C249.066 17.5746 248.813 17.4021 248.516 17.4021L242.433 17.3877L240.515 12.0758C240.419 11.8106 240.169 11.6322 239.866 11.6433C239.569 11.6466 239.317 11.8204 239.228 12.0876L237.432 17.3877L231.276 17.4021C230.978 17.4021 230.725 17.5746 230.632 17.8405C230.539 18.1071 230.634 18.3874 230.874 18.5533L235.692 21.8992L233.802 27.5228C233.712 27.79 233.809 28.0683 234.05 28.233C234.172 28.3153 234.31 28.3571 234.449 28.3571C234.586 28.3571 234.723 28.3166 234.842 28.2362L239.921 24.8649L244.949 28.2336C245.189 28.3983 245.502 28.3976 245.743 28.233C245.984 28.069 246.082 27.7906 245.992 27.5234L244.1 21.8992L248.917 18.554C249.157 18.3874 249.252 18.1071 249.159 17.8412" stroke="#F9D75B"/>
<path fill-rule="evenodd" clip-rule="evenodd" d="M277.756 17.8412C277.663 17.5746 277.41 17.4021 277.113 17.4021L271.03 17.3877L269.112 12.0758C269.016 11.8106 268.765 11.6322 268.463 11.6433C268.165 11.6466 267.914 11.8204 267.825 12.0876L266.029 17.3877L259.872 17.4021C259.575 17.4021 259.322 17.5746 259.229 17.8405C259.136 18.1071 259.231 18.3874 259.471 18.5533L264.288 21.8992L262.399 27.5228C262.309 27.79 262.406 28.0683 262.647 28.233C262.769 28.3153 262.907 28.3571 263.046 28.3571C263.183 28.3571 263.32 28.3166 263.439 28.2362L268.518 24.8649L273.546 28.2336C273.786 28.3983 274.099 28.3976 274.34 28.233C274.581 28.069 274.678 27.7906 274.589 27.5234L272.697 21.8992L277.514 18.554C277.754 18.3874 277.849 18.1071 277.756 17.8412Z" fill="#F4D356"/>
<path d="M277.756 17.8412C277.663 17.5746 277.41 17.4021 277.113 17.4021L271.03 17.3877L269.112 12.0758C269.016 11.8106 268.765 11.6322 268.463 11.6433C268.165 11.6466 267.914 11.8204 267.825 12.0876L266.029 17.3877L259.872 17.4021C259.575 17.4021 259.322 17.5746 259.229 17.8405C259.136 18.1071 259.231 18.3874 259.471 18.5533L264.288 21.8992L262.399 27.5228C262.309 27.79 262.406 28.0683 262.647 28.233C262.769 28.3153 262.907 28.3571 263.046 28.3571C263.183 28.3571 263.32 28.3166 263.439 28.2362L268.518 24.8649L273.546 28.2336C273.786 28.3983 274.099 28.3976 274.34 28.233C274.581 28.069 274.678 27.7906 274.589 27.5234L272.697 21.8992L277.514 18.554C277.754 18.3874 277.849 18.1071 277.756 17.8412" stroke="#F9D75B"/>
<path fill-rule="evenodd" clip-rule="evenodd" d="M306.353 17.8412C306.26 17.5746 306.007 17.4021 305.71 17.4021L299.627 17.3877L297.709 12.0758C297.613 11.8106 297.362 11.6322 297.06 11.6433C296.762 11.6466 296.511 11.8204 296.422 12.0876L294.626 17.3877L288.469 17.4021C288.172 17.4021 287.919 17.5746 287.826 17.8405C287.733 18.1071 287.828 18.3874 288.068 18.5533L292.885 21.8992L290.996 27.5228C290.906 27.79 291.003 28.0683 291.244 28.233C291.366 28.3153 291.504 28.3571 291.643 28.3571C291.78 28.3571 291.917 28.3166 292.036 28.2362L297.115 24.8649L302.143 28.2336C302.383 28.3983 302.696 28.3976 302.937 28.233C303.178 28.069 303.275 27.7906 303.186 27.5234L301.294 21.8992L306.11 18.554C306.35 18.3874 306.446 18.1071 306.353 17.8412Z" fill="#F4D356"/>
<path d="M306.353 17.8412C306.26 17.5746 306.007 17.4021 305.71 17.4021L299.627 17.3877L297.709 12.0758C297.613 11.8106 297.362 11.6322 297.06 11.6433C296.762 11.6466 296.511 11.8204 296.422 12.0876L294.626 17.3877L288.469 17.4021C288.172 17.4021 287.919 17.5746 287.826 17.8405C287.733 18.1071 287.828 18.3874 288.068 18.5533L292.885 21.8992L290.996 27.5228C290.906 27.79 291.003 28.0683 291.244 28.233C291.366 28.3153 291.504 28.3571 291.643 28.3571C291.78 28.3571 291.917 28.3166 292.036 28.2362L297.115 24.8649L302.143 28.2336C302.383 28.3983 302.696 28.3976 302.937 28.233C303.178 28.069 303.275 27.7906 303.186 27.5234L301.294 21.8992L306.11 18.554C306.35 18.3874 306.446 18.1071 306.353 17.8412" stroke="#F9D75B"/>
<path fill-rule="evenodd" clip-rule="evenodd" d="M335.983 17.8412C335.89 17.5746 335.637 17.4021 335.34 17.4021L329.257 17.3877L327.339 12.0758C327.243 11.8106 326.993 11.6322 326.69 11.6433C326.392 11.6466 326.141 11.8204 326.052 12.0876L324.256 17.3877L318.1 17.4021C317.802 17.4021 317.549 17.5746 317.456 17.8405C317.363 18.1071 317.458 18.3874 317.698 18.5533L322.515 21.8992L320.626 27.5228C320.536 27.79 320.633 28.0683 320.874 28.233C320.996 28.3153 321.134 28.3571 321.273 28.3571C321.41 28.3571 321.547 28.3166 321.666 28.2362L326.745 24.8649L331.773 28.2336C332.013 28.3983 332.326 28.3976 332.567 28.233C332.808 28.069 332.906 27.7906 332.816 27.5234L330.924 21.8992L335.741 18.554C335.981 18.3874 336.076 18.1071 335.983 17.8412Z" fill="#F4D356"/>
<path d="M335.983 17.8412C335.89 17.5746 335.637 17.4021 335.34 17.4021L329.257 17.3877L327.339 12.0758C327.243 11.8106 326.993 11.6322 326.69 11.6433C326.392 11.6466 326.141 11.8204 326.052 12.0876L324.256 17.3877L318.1 17.4021C317.802 17.4021 317.549 17.5746 317.456 17.8405C317.363 18.1071 317.458 18.3874 317.698 18.5533L322.515 21.8992L320.626 27.5228C320.536 27.79 320.633 28.0683 320.874 28.233C320.996 28.3153 321.134 28.3571 321.273 28.3571C321.41 28.3571 321.547 28.3166 321.666 28.2362L326.745 24.8649L331.773 28.2336C332.013 28.3983 332.326 28.3976 332.567 28.233C332.808 28.069 332.906 27.7906 332.816 27.5234L330.924 21.8992L335.741 18.554C335.981 18.3874 336.076 18.1071 335.983 17.8412" stroke="#F9D75B"/>
</svg>
